<svg width="136" height="124" viewBox="0 0 136 124" fill="none" xmlns="http://www.w3.org/2000/svg">
<path d="M14.1258 100.773C10.2245 100.773 6.87822 99.4107 4.08682 96.6865C1.32905 93.9288 -0.0330235 90.5824 0.000607794 86.6476C-0.0330235 82.8136 1.32905 79.5345 4.08682 76.8104C6.87822 74.0863 10.2245 72.7242 14.1258 72.7242C17.8252 72.7242 21.0875 74.0863 23.9125 76.8104C26.7712 79.5345 28.2173 82.8136 28.2509 86.6476C28.2173 89.2708 27.5279 91.6586 26.1826 93.811C24.871 95.9298 23.1558 97.6282 21.037 98.9062C18.9182 100.151 16.6145 100.773 14.1258 100.773ZM14.1258 48.7114C10.2245 48.7114 6.87822 47.3493 4.08682 44.6252C1.32905 41.8674 -0.0330235 38.5211 0.000607794 34.5862C-0.0330235 30.7523 1.32905 27.4732 4.08682 24.7491C6.87822 22.0249 10.2245 20.6629 14.1258 20.6629C17.8252 20.6629 21.0875 22.0249 23.9125 24.7491C26.7712 27.4732 28.2173 30.7523 28.2509 34.5862C28.2173 37.2095 27.5279 39.5973 26.1826 41.7497C24.871 43.8685 23.1558 45.5669 21.037 46.8449C18.9182 48.0892 16.6145 48.7114 14.1258 48.7114Z" fill="#A282D0"/>
<path d="M91.0339 0L57.7388 123.696H34.1296L67.4247 0H91.0339Z" fill="#A282D0"/>
<path d="M135.578 0L102.283 123.696H78.6734L111.968 0H135.578Z" fill="#A282D0"/>
</svg>
