<svg width="251" height="330" viewBox="0 0 251 330" fill="none" xmlns="http://www.w3.org/2000/svg">
<path d="M37.6687 292.727C27.2654 292.727 18.3419 289.095 10.8982 281.831C3.54412 274.477 -0.0880627 265.553 0.00162078 255.06C-0.0880627 244.836 3.54412 236.092 10.8982 228.828C18.3419 221.563 27.2654 217.931 37.6687 217.931C47.5339 217.931 56.2332 221.563 63.7667 228.828C71.3898 236.092 75.2462 244.836 75.3358 255.06C75.2462 262.055 73.4076 268.423 69.8203 274.163C66.3226 279.813 61.7488 284.342 56.0987 287.75C50.4486 291.068 44.3053 292.727 37.6687 292.727ZM37.6687 153.897C27.2654 153.897 18.3419 150.265 10.8982 143.001C3.54412 135.646 -0.0880627 126.723 0.00162078 116.23C-0.0880627 106.006 3.54412 97.2619 10.8982 89.9975C18.3419 82.7331 27.2654 79.101 37.6687 79.101C47.5339 79.101 56.2332 82.7331 63.7667 89.9975C71.3898 97.2619 75.2462 106.006 75.3358 116.23C75.2462 123.225 73.4076 129.593 69.8203 135.333C66.3226 140.983 61.7488 145.512 56.0987 148.92C50.4486 152.238 44.3053 153.897 37.6687 153.897Z" fill="#A282D0"/>
<path d="M250.757 0L161.97 329.856H99.0123L187.799 0H250.757Z" fill="#A282D0"/>
</svg>
